<svg xmlns="http://www.w3.org/2000/svg" width="1024" height="1024" viewBox="670 440 350 165">
  <g>
    <path d="M 680.00 593.50 C680.00,593.22 687.97,583.88 697.71,572.75 C707.45,561.61 721.31,545.75 728.50,537.50 C735.70,529.25 744.83,518.78 748.79,514.24 C752.76,509.70 756.00,505.58 756.00,505.08 C756.00,504.59 753.92,503.17 751.38,501.94 C742.39,497.59 729.44,499.43 723.60,505.89 C720.71,509.08 719.86,508.46 720.20,503.42 L 720.50 498.85 L 727.50 495.96 C761.10,482.06 840.40,450.07 840.65,450.31 C840.81,450.48 834.31,458.24 826.19,467.56 C818.07,476.88 795.72,502.73 776.53,525.00 L 741.64 565.50 L 772.57 566.00 L 803.50 566.50 L 812.97 576.50 C818.17,582.00 824.00,588.19 825.92,590.25 L 829.41 594.00 L 754.70 594.00 C713.62,594.00 680.00,593.77 680.00,593.50 ZM 845.17 593.10 C845.35,592.60 862.36,572.85 882.96,549.20 C903.57,525.56 920.57,505.80 920.74,505.29 C920.90,504.79 918.94,503.33 916.37,502.04 C912.91,500.32 909.98,499.70 905.10,499.69 C897.40,499.67 892.76,501.39 888.16,505.99 L 884.89 509.27 L 885.19 503.92 L 885.50 498.57 L 945.39 474.26 C978.33,460.89 1005.40,450.07 1005.54,450.23 C1005.67,450.38 1001.08,455.90 995.33,462.50 C964.96,497.37 907.46,564.27 907.17,565.07 C906.97,565.63 919.05,566.00 937.33,566.00 L 967.83 566.00 L 980.17 579.08 C986.95,586.27 992.65,592.57 992.83,593.08 C993.03,593.64 963.82,594.00 919.00,594.00 C875.37,594.00 844.97,593.63 845.17,593.10 Z" fill="currentColor"/>
  </g>
</svg>
