<svg xmlns="http://www.w3.org/2000/svg" width="1024" height="1024" viewBox="0 0 1024 1024">
<g>
<path d="M 680.00 593.50 C680.00,593.22 687.97,583.88 697.71,572.75 C707.45,561.61 721.31,545.75 728.50,537.50 C735.70,529.25 744.83,518.78 748.79,514.24 C752.76,509.70 756.00,505.58 756.00,505.08 C756.00,504.59 753.92,503.17 751.38,501.94 C742.39,497.59 729.44,499.43 723.60,505.89 C720.71,509.08 719.86,508.46 720.20,503.42 L 720.50 498.85 L 727.50 495.96 C761.10,482.06 840.40,450.07 840.65,450.31 C840.81,450.48 834.31,458.24 826.19,467.56 C818.07,476.88 795.72,502.73 776.53,525.00 L 741.64 565.50 L 772.57 566.00 L 803.50 566.50 L 812.97 576.50 C818.17,582.00 824.00,588.19 825.92,590.25 L 829.41 594.00 L 754.70 594.00 C713.62,594.00 680.00,593.77 680.00,593.50 ZM 845.17 593.10 C845.35,592.60 862.36,572.85 882.96,549.20 C903.57,525.56 920.57,505.80 920.74,505.29 C920.90,504.79 918.94,503.33 916.37,502.04 C912.91,500.32 909.98,499.70 905.10,499.69 C897.40,499.67 892.76,501.39 888.16,505.99 L 884.89 509.27 L 885.19 503.92 L 885.50 498.57 L 945.39 474.26 C978.33,460.89 1005.40,450.07 1005.54,450.23 C1005.67,450.38 1001.08,455.90 995.33,462.50 C964.96,497.37 907.46,564.27 907.17,565.07 C906.97,565.63 919.05,566.00 937.33,566.00 L 967.83 566.00 L 980.17 579.08 C986.95,586.27 992.65,592.57 992.83,593.08 C993.03,593.64 963.82,594.00 919.00,594.00 C875.37,594.00 844.97,593.63 845.17,593.10 ZM 63.50 592.37 C41.52,588.95 25.06,574.64 23.28,557.38 L 22.72 552.00 L 39.89 552.00 C55.38,552.00 57.11,552.17 57.58,553.75 C59.21,559.26 61.79,562.64 65.96,564.75 C76.89,570.26 89.00,564.84 89.00,554.44 C89.00,546.27 83.29,542.11 63.00,535.53 C46.52,530.18 39.76,526.84 33.59,520.99 C25.36,513.21 23.57,508.76 23.53,495.98 C23.50,486.07 23.69,485.07 26.79,478.77 C34.31,463.50 52.57,455.09 75.50,456.34 C87.79,457.01 96.80,459.69 104.85,465.06 C114.08,471.22 119.59,480.13 121.37,491.75 L 122.02 496.00 L 104.48 496.00 C88.64,496.00 86.89,495.83 86.40,494.25 C84.82,489.04 82.40,485.89 78.54,484.02 C68.29,479.06 57.73,484.12 57.73,494.00 C57.73,501.81 61.98,504.89 82.79,512.17 C98.32,517.60 107.18,522.15 113.22,527.80 C119.29,533.48 121.79,538.17 122.78,545.73 C125.49,566.39 114.64,583.05 93.93,590.02 C87.63,592.15 70.53,593.46 63.50,592.37 ZM 305.00 591.57 C280.14,586.30 262.58,570.69 253.76,546.00 C250.82,537.80 250.15,517.40 252.49,507.74 C257.21,488.29 269.95,472.19 287.47,463.56 C307.79,453.54 330.29,453.58 351.00,463.67 C367.82,471.87 380.59,487.50 385.58,506.00 C387.93,514.71 387.99,533.10 385.69,542.00 C379.60,565.54 361.25,584.22 338.00,590.56 C330.08,592.72 312.90,593.25 305.00,591.57 ZM 335.22 559.68 C351.30,551.81 358.69,530.05 352.25,509.50 C349.04,499.24 341.00,490.59 331.94,487.67 C324.44,485.25 312.51,485.46 305.32,488.15 C292.71,492.87 285.26,504.54 284.26,521.12 C283.06,541.05 291.34,555.72 307.00,561.39 C314.23,564.01 328.09,563.17 335.22,559.68 ZM 172.00 538.00 L 172.00 484.00 L 154.00 484.00 L 136.00 484.00 L 136.00 471.00 L 136.00 458.00 L 188.00 458.00 L 240.00 458.00 L 240.00 471.00 L 240.00 484.00 L 222.00 484.00 L 204.00 484.00 L 204.00 538.00 L 204.00 592.00 L 188.00 592.00 L 172.00 592.00 L 172.00 538.00 ZM 406.00 525.00 L 406.00 458.00 L 422.25 458.00 L 438.50 458.00 L 465.50 499.13 L 492.50 540.25 L 492.76 499.13 L 493.02 458.00 L 509.01 458.00 L 525.00 458.00 L 525.00 525.02 L 525.00 592.05 L 508.92 591.77 L 492.84 591.50 L 466.55 551.68 C452.09,529.78 439.76,511.36 439.13,510.73 C438.29,509.89 438.00,520.12 438.00,550.80 L 438.00 592.00 L 422.00 592.00 L 406.00 592.00 L 406.00 525.00 ZM 549.00 525.02 L 549.00 458.00 L 565.50 458.00 L 582.00 458.00 L 582.00 487.11 L 582.00 516.23 L 604.03 487.11 L 626.07 458.00 L 645.16 458.00 C660.27,458.00 664.04,458.26 663.28,459.25 C662.75,459.94 651.21,474.58 637.63,491.79 C622.35,511.15 613.21,523.54 613.66,524.29 C614.06,524.96 626.00,540.24 640.20,558.26 C654.39,576.28 666.00,591.25 666.00,591.53 C666.00,591.81 657.12,591.92 646.26,591.77 L 626.53 591.50 L 604.51 562.61 L 582.50 533.72 L 582.00 562.61 L 581.50 591.50 L 565.25 591.77 L 549.00 592.05 L 549.00 525.02 Z" fill="rgba(0,0,0,1)"/>
</g>
</svg>